<?xml version="1.0"?>
<svg version="1.1" xmlns="http://www.w3.org/2000/svg" width="400" height="53" style=""><path fill="#55a9e6" d="M16.6123046875,36.6689453125q-0.0634765625-0.8505859375,0.1015625-1.5615234375t0.66015625-1.1552734375t1.5869140625-0.4443359375q0.25390625,0,0.6220703125,0.0634765625t0.7236328125,0.1650390625t0.5966796875,0.3046875t0.2412109375,0.55859375l0,2.869140625q0.990234375-1.142578125,2.158203125-1.6376953125t2.666015625-0.4951171875q1.142578125,0,2.259765625,0.5205078125t2.107421875,1.3837890625t1.7138671875,1.904296875t1.0537109375,2.08203125q0.203125-0.939453125,0.45703125-2.2978515625t0.7490234375-2.6025390625t1.3076171875-2.1328125t2.158203125-0.888671875q1.447265625,0,2.4375,1.041015625t1.6123046875,2.7041015625t0.939453125,3.7197265625t0.4697265625,4.0625t0.15234375,3.7451171875l0,2.7294921875q0,0.3046875-0.228515625,0.4951171875t-0.5712890625,0.2919921875t-0.7109375,0.126953125t-0.5712890625,0.025390625q-0.787109375,0-1.4345703125-0.2412109375t-0.6474609375-1.2314453125l0-2.28515625t-0.05078125-2.9580078125t-0.177734375-3.173828125t-0.330078125-2.8818359375t-0.5205078125-2.08203125t-0.7744140625-0.8125q-0.634765625,0-0.9140625,0.7109375t-0.4697265625,1.802734375t-0.2919921875,2.310546875t-0.279296875,2.310546875t-0.5712890625,1.7900390625t-1.0791015625,0.6982421875q-0.736328125,0-1.294921875-0.6982421875t-1.1044921875-1.7392578125t-1.091796875-2.234375t-1.2060546875-2.234375q-0.66015625-1.06640625-1.421875-1.7265625q-0.685546875-0.634765625-1.548828125-0.609375l-0.126953125,0q-1.142578125,0.05078125-1.7900390625,0.8251953125t-0.990234375,1.8916015625t-0.4189453125,2.3994140625t-0.076171875,2.2470703125q0,0.9140625,0.15234375,2.1328125q0.1015625,0.8125,0.1015625,1.548828125q0,0.380859375-0.025390625,0.736328125q-0.076171875,1.06640625-0.5712890625,1.7900390625t-1.8408203125,0.7236328125q-0.5078125,0-1.26953125-0.1015625t-1.015625-0.685546875q-0.583984375-1.041015625-0.888671875-2.6279296875t-0.45703125-3.275390625t-0.177734375-3.3515625t-0.025390625-2.8564453125q0-0.837890625-0.0634765625-1.6884765625z M48.63419921875,43.029296875q0-1.7265625,0.4697265625-3.326171875t1.4091796875-2.8564453125t2.3486328125-2.005859375t3.2626953125-0.7490234375q1.142578125,0,2.5263671875,0.3427734375t2.6025390625,1.015625t2.03125,1.7138671875t0.8125,2.38671875q0,0.634765625-0.2158203125,0.96484375t-0.8759765625,0.330078125l-0.279296875-0.05078125q0.736328125,1.98046875,1.26953125,4.0625t1.041015625,4.1640625q0.203125,0.40625,0.3046875,0.7236328125t0.1015625,0.6220703125q0,0.40625-0.228515625,0.6728515625t-0.5966796875,0.3935546875t-0.76171875,0.177734375t-0.6982421875,0.05078125q-1.091796875,0-1.6376953125-0.380859375t-0.787109375-1.041015625t-0.2919921875-1.4853515625t-0.203125-1.6630859375q-0.3046875,0.990234375-0.7998046875,1.9296875t-1.16796875,1.6884765625t-1.5869140625,1.193359375t-2.056640625,0.4443359375q-1.67578125,0-2.818359375-0.96484375t-1.8408203125-2.3740234375t-1.015625-3.0087890625t-0.3173828125-2.970703125z M52.23966796875,42.673828125q0,0.939453125,0.126953125,1.98046875t0.4189453125,2.056640625t0.7490234375,1.9169921875t1.142578125,1.5869140625q1.244140625-1.345703125,1.8408203125-3.275390625t1.06640625-3.7197265625t1.06640625-3.072265625t1.8408203125-1.2822265625q0.787109375,0,1.3203125,0.279296875q-0.25390625-0.634765625-0.837890625-1.2314453125t-1.3076171875-1.091796875t-1.498046875-0.8125t-1.4599609375-0.3173828125q-0.203125,0-0.4697265625,0.0634765625t-0.4189453125,0.0126953125q-1.041015625,0.3046875-1.7138671875,1.0537109375t-1.091796875,1.7646484375t-0.5966796875,2.08203125t-0.177734375,2.005859375z M70.6394921875,45.796875l0-2.38671875q0-1.294921875,0.0634765625-3.6689453125t0.1650390625-5.205078125t0.279296875-5.9033203125t0.40625-5.8017578125t0.5458984375-4.8876953125t0.7236328125-3.19921875q0.25390625-0.583984375,0.837890625-0.736328125t1.142578125-0.15234375q0.888671875,0,1.5615234375,0.3935546875t0.6728515625,1.4345703125l-0.45703125,0.5078125q-0.888671875,5.865234375-1.142578125,11.78125t-0.35546875,11.83203125q0.634765625-0.990234375,1.4345703125-1.9423828125t1.77734375-1.6884765625t2.107421875-1.1806640625t2.4755859375-0.4443359375q1.7265625,0,2.8564453125,1.041015625t1.8662109375,2.7041015625t1.091796875,3.7197265625t0.5458984375,4.11328125t0.2666015625,3.8974609375t0.228515625,3.0595703125q-0.482421875,0.66015625-1.421875,0.66015625l-0.076171875,0q-0.40625,0-0.888671875-0.1015625t-0.634765625-0.5078125l0.05078125,0.05078125q-0.35546875-0.787109375-0.482421875-2.2724609375t-0.203125-3.275390625t-0.2666015625-3.6689453125t-0.5712890625-3.40234375t-1.1171875-2.513671875t-1.98046875-1.041015625l-0.15234375,0q-1.498046875,0-2.513671875,0.9140625q-1.06640625,0.96484375-1.7265625,2.5390625t-1.015625,3.50390625t-0.5458984375,3.7197265625t-0.2919921875,3.25t-0.25390625,2.1455078125q-0.15234375,0.583984375-0.9013671875,0.7744140625t-1.2822265625,0.1904296875q-1.244140625,0-2.03125-0.7109375q-0.583984375-1.396484375-0.685546875-3.478515625t-0.1015625-4.0625z M94.99341796875,36.6689453125q-0.0634765625-0.8505859375,0.1015625-1.5615234375t0.66015625-1.1552734375t1.5869140625-0.4443359375q0.25390625,0,0.6220703125,0.0634765625t0.7236328125,0.1650390625t0.5966796875,0.3046875t0.2412109375,0.55859375l0,2.869140625q0.990234375-1.142578125,2.158203125-1.6376953125t2.666015625-0.4951171875q1.142578125,0,2.259765625,0.5205078125t2.107421875,1.3837890625t1.7138671875,1.904296875t1.0537109375,2.08203125q0.203125-0.939453125,0.45703125-2.2978515625t0.7490234375-2.6025390625t1.3076171875-2.1328125t2.158203125-0.888671875q1.447265625,0,2.4375,1.041015625t1.6123046875,2.7041015625t0.939453125,3.7197265625t0.4697265625,4.0625t0.15234375,3.7451171875l0,2.7294921875q0,0.3046875-0.228515625,0.4951171875t-0.5712890625,0.2919921875t-0.7109375,0.126953125t-0.5712890625,0.025390625q-0.787109375,0-1.4345703125-0.2412109375t-0.6474609375-1.2314453125l0-2.28515625t-0.05078125-2.9580078125t-0.177734375-3.173828125t-0.330078125-2.8818359375t-0.5205078125-2.08203125t-0.7744140625-0.8125q-0.634765625,0-0.9140625,0.7109375t-0.4697265625,1.802734375t-0.2919921875,2.310546875t-0.279296875,2.310546875t-0.5712890625,1.7900390625t-1.0791015625,0.6982421875q-0.736328125,0-1.294921875-0.6982421875t-1.1044921875-1.7392578125t-1.091796875-2.234375t-1.2060546875-2.234375q-0.66015625-1.06640625-1.421875-1.7265625q-0.685546875-0.634765625-1.548828125-0.609375l-0.126953125,0q-1.142578125,0.05078125-1.7900390625,0.8251953125t-0.990234375,1.8916015625t-0.4189453125,2.3994140625t-0.076171875,2.2470703125q0,0.9140625,0.15234375,2.1328125q0.1015625,0.8125,0.1015625,1.548828125q0,0.380859375-0.025390625,0.736328125q-0.076171875,1.06640625-0.5712890625,1.7900390625t-1.8408203125,0.7236328125q-0.5078125,0-1.26953125-0.1015625t-1.015625-0.685546875q-0.583984375-1.041015625-0.888671875-2.6279296875t-0.45703125-3.275390625t-0.177734375-3.3515625t-0.025390625-2.8564453125q0-0.837890625-0.0634765625-1.6884765625z M126.5075,43.51171875q0-1.447265625,0.3681640625-2.9833984375t1.16796875-2.767578125t2.0185546875-2.005859375t2.9453125-0.7744140625q1.294921875,0,2.7294921875,0.4443359375t2.6279296875,1.26953125t1.9423828125,2.0185546875t0.7490234375,2.666015625q0,1.77734375-0.6474609375,3.376953125t-1.8154296875,2.8564453125t-2.7294921875,1.98046875t-3.3896484375,0.7236328125q-1.498046875,0-2.615234375-0.5458984375t-1.8662109375-1.4599609375t-1.1171875-2.158203125t-0.3681640625-2.640625z M130.239921875,43.4609375q0,0.45703125,0.1396484375,1.345703125t0.4189453125,1.7392578125t0.7236328125,1.47265625t1.0791015625,0.5712890625q1.345703125-0.15234375,2.2216796875-0.8759765625t1.421875-1.7646484375t0.76171875-2.259765625t0.2158203125-2.310546875q0-1.396484375-0.5458984375-2.3359375t-1.7900390625-1.5234375q0,0.05078125,0.05078125,0.05078125t0.05078125-0.05078125l-0.634765625-0.15234375q-0.25390625-0.1015625-0.6220703125-0.228515625t-0.7236328125-0.55859375q-0.990234375,0.35546875-1.5361328125,0.9140625t-0.8251953125,1.3583984375t-0.3427734375,1.9169921875t-0.0634765625,2.69140625z M144.70419921875,40.794921875q0-0.5078125,0.1142578125-1.345703125t0.2666015625-1.6630859375t0.35546875-1.5361328125t0.482421875-0.9140625q0.203125-0.203125,0.6982421875-0.40625t1.041015625-0.2919921875t1.015625,0.076171875t0.5712890625,0.6728515625q-0.35546875,0.45703125-0.6474609375,1.5615234375t-0.4443359375,2.4501953125q-0.126953125,1.142578125-0.126953125,2.361328125l0,0.431640625q0.025390625,1.421875,0.25390625,2.615234375t0.6982421875,1.9677734375t1.3076171875,0.7744140625q1.77734375,0,3.25-1.6376953125t2.615234375-3.9990234375t2.005859375-5.0146484375t1.47265625-4.6337890625q0.15234375-0.583984375,0.7236328125-0.787109375t1.2314453125-0.1396484375t1.1806640625,0.3173828125t0.6220703125,0.609375q-0.5078125,4.265625-0.7998046875,8.53125t-0.2919921875,8.58203125q0,0.837890625,0.076171875,1.5361328125t-0.076171875,1.193359375t-0.6728515625,0.787109375t-1.6630859375,0.2919921875q-0.25390625,0-0.6474609375-0.05078125t-0.8125-0.1650390625t-0.7109375-0.3427734375t-0.2919921875-0.533203125q0-1.87890625,0.1396484375-3.859375t0.3935546875-3.833984375q-0.685546875,0.990234375-1.5107421875,1.9677734375t-1.8154296875,1.7646484375t-2.1328125,1.2568359375t-2.462890625,0.4697265625q-1.87890625,0-2.9580078125-0.888671875t-1.625-2.2216796875t-0.685546875-2.9072265625t-0.1396484375-3.046875z M168.5883984375,42.724609375q0-1.98046875,0.4189453125-3.5927734375t1.3330078125-2.7294921875t2.3994140625-1.7392578125t3.6181640625-0.6220703125q1.193359375,0,2.4375,0.3173828125t2.1328125,1.1806640625q0-0.5078125,0.1015625-2.0947265625t0.25390625-3.6943359375t0.3173828125-4.41796875t0.2919921875-4.291015625t0.228515625-3.326171875t0.15234375-1.5234375q0.25390625-0.736328125,0.939453125-0.8759765625t1.294921875-0.1396484375q1.599609375,0,1.9677734375,0.5078125t0.3681640625,2.03125q0,5.560546875-0.4951171875,11.0703125t-0.4951171875,11.0703125q0,3.580078125,0.1396484375,7.1982421875t1.0029296875,7.1220703125l0.279296875,0.25390625l0.15234375,0.45703125l-0.380859375,0.583984375q-0.96484375,0.609375-2.234375,0.609375l-0.1015625,0q-1.294921875,0-2.38671875-0.609375q-0.40625-0.25390625-0.6728515625-1.5107421875t-0.4189453125-2.767578125t-0.228515625-2.9072265625t-0.126953125-1.98046875q-0.888671875,2.03125-2.4248046875,3.4912109375t-3.8720703125,1.4599609375q-1.828125,0-2.99609375-0.787109375t-1.8154296875-2.005859375t-0.9140625-2.7294921875t-0.2666015625-3.0087890625z M171.6606640625,42.876953125q0,0.583984375,0.1396484375,1.7265625t0.4443359375,2.28515625t0.8505859375,2.03125t1.4345703125,0.888671875q1.193359375-0.583984375,2.158203125-1.9423828125t1.6630859375-2.99609375t1.091796875-3.275390625t0.3935546875-2.8310546875q0-1.498046875-1.091796875-2.48828125t-2.615234375-0.990234375q-0.45703125,0-0.9267578125,0.177734375t-0.8759765625,0.40625q-0.939453125,0.888671875-1.4599609375,1.6123046875t-0.787109375,1.498046875t-0.3427734375,1.7138671875t-0.076171875,2.18359375z M202.544296875,43.15625l0-0.736328125q0-0.9140625,0.05078125-1.7265625q0.05078125-1.142578125,0.05078125-1.87890625q0-0.40625,0.05078125-0.9267578125t0.25390625-0.8251953125q0.25390625-0.25390625,0.5966796875-0.5205078125t0.7490234375-0.2666015625q1.294921875,0,2.03125,0.2919921875t0.787109375,1.2060546875l0.1015625,0.787109375q0.45703125-1.091796875,1.21875-2.7041015625t1.7646484375-3.072265625t2.259765625-2.48828125t2.6533203125-1.0283203125q1.294921875,0,2.1328125,1.21875t1.3330078125,3.1103515625t0.6982421875,4.21484375t0.279296875,4.5576171875t0.1015625,4.0751953125t0.177734375,2.7802734375q0.1015625,0.787109375,0.3427734375,1.6630859375t0.2412109375,1.6123046875q0,0.203125-0.2919921875,0.3935546875t-0.6220703125,0.3173828125t-0.6728515625,0.203125t-0.4951171875,0.076171875q-0.990234375,0-1.4091796875-1.4853515625t-0.5205078125-3.7197265625t-0.1015625-4.8369140625t-0.177734375-4.8369140625t-0.7236328125-3.7197265625t-1.7392578125-1.5361328125q-1.091796875,0-2.259765625,1.4091796875t-2.005859375,3.7451171875q-0.8125,2.3359375-1.1171875,5.306640625q-0.1015625,0.939453125-0.1015625,1.87890625q0,2.056640625,0.431640625,4.11328125q0.05078125,0.35546875-0.2919921875,0.533203125t-0.8505859375,0.279296875t-1.0283203125,0.126953125t-0.7998046875,0.025390625q-0.990234375,0-1.5869140625-0.6982421875t-0.9267578125-1.7900390625t-0.4443359375-2.4501953125t-0.1396484375-2.6787109375z M225.61599609375,43.029296875q0-1.7265625,0.4697265625-3.326171875t1.4091796875-2.8564453125t2.3486328125-2.005859375t3.2626953125-0.7490234375q1.142578125,0,2.5263671875,0.3427734375t2.6025390625,1.015625t2.03125,1.7138671875t0.8125,2.38671875q0,0.634765625-0.2158203125,0.96484375t-0.8759765625,0.330078125l-0.279296875-0.05078125q0.736328125,1.98046875,1.26953125,4.0625t1.041015625,4.1640625q0.203125,0.40625,0.3046875,0.7236328125t0.1015625,0.6220703125q0,0.40625-0.228515625,0.6728515625t-0.5966796875,0.3935546875t-0.76171875,0.177734375t-0.6982421875,0.05078125q-1.091796875,0-1.6376953125-0.380859375t-0.787109375-1.041015625t-0.2919921875-1.4853515625t-0.203125-1.6630859375q-0.3046875,0.990234375-0.7998046875,1.9296875t-1.16796875,1.6884765625t-1.5869140625,1.193359375t-2.056640625,0.4443359375q-1.67578125,0-2.818359375-0.96484375t-1.8408203125-2.3740234375t-1.015625-3.0087890625t-0.3173828125-2.970703125z M229.22146484375,42.673828125q0,0.939453125,0.126953125,1.98046875t0.4189453125,2.056640625t0.7490234375,1.9169921875t1.142578125,1.5869140625q1.244140625-1.345703125,1.8408203125-3.275390625t1.06640625-3.7197265625t1.06640625-3.072265625t1.8408203125-1.2822265625q0.787109375,0,1.3203125,0.279296875q-0.25390625-0.634765625-0.837890625-1.2314453125t-1.3076171875-1.091796875t-1.498046875-0.8125t-1.4599609375-0.3173828125q-0.203125,0-0.4697265625,0.0634765625t-0.4189453125,0.0126953125q-1.041015625,0.3046875-1.7138671875,1.0537109375t-1.091796875,1.7646484375t-0.5966796875,2.08203125t-0.177734375,2.005859375z M247.6212890625,36.478515625q0-1.041015625,0.609375-1.7900390625t1.4853515625-1.21875t1.9169921875-0.6982421875t1.9296875-0.228515625q0.685546875,0,1.828125,0.203125t2.234375,0.609375t1.8916015625,1.06640625t0.7998046875,1.548828125q0,0.40625-0.3046875,0.7236328125t-0.634765625,0.3173828125q-0.685546875,0-1.244140625-0.4443359375t-1.1552734375-0.939453125t-1.3076171875-0.939453125t-1.599609375-0.4443359375t-1.6123046875,0.5712890625t-0.7236328125,1.5107421875q0,1.548828125,1.091796875,3.0341796875t2.3994140625,3.123046875t2.3994140625,3.4404296875t1.091796875,3.986328125q0,0.939453125-0.3935546875,1.5869140625t-1.041015625,1.0537109375t-1.4599609375,0.6220703125t-1.57421875,0.2158203125q-0.837890625,0-1.955078125-0.3935546875t-2.107421875-1.041015625t-1.6630859375-1.5107421875t-0.6728515625-1.802734375q0-0.45703125,0.6474609375-0.583984375t0.9521484375-0.126953125q0.15234375,0,0.4697265625,0.1015625t0.6220703125,0.228515625t0.5458984375,0.279296875t0.1904296875,0.330078125q0.25390625,0.3046875,0.7744140625,0.9013671875t1.041015625,0.96484375t0.9140625,0.2666015625t0.3935546875-1.142578125q0-1.98046875-1.06640625-3.6435546875t-2.3232421875-3.25t-2.3232421875-3.1484375t-1.06640625-3.3388671875z M265.51330078125,35.919921875q0-1.041015625,0.3681640625-1.751953125t1.5615234375-0.7109375q0.45703125,0,1.142578125,0.1396484375t0.787109375,0.6982421875q0.25390625,1.498046875,0.279296875,3.25t0.177734375,3.30078125q0.583984375-1.142578125,1.498046875-2.462890625t2.08203125-2.4375t2.5390625-1.853515625t2.79296875-0.736328125q0.1015625,0,0.380859375,0.076171875t0.5205078125,0.2158203125t0.2919921875,0.3173828125t-0.279296875,0.330078125q-0.1015625,0.3046875-0.431640625,0.3681640625t-0.583984375,0.0634765625q-0.15234375,0-0.482421875-0.126953125q-1.87890625,0.990234375-3.19921875,2.69140625t-2.158203125,3.7705078125t-1.21875,4.3671875t-0.380859375,4.4814453125q0,1.091796875-0.4951171875,1.3203125t-1.5869140625,0.228515625q-0.583984375,0-1.2314453125-0.126953125t-0.9013671875-0.8125q-0.45703125-1.447265625-0.7490234375-3.326171875t-0.4443359375-3.8720703125t-0.2158203125-3.9228515625t-0.0634765625-3.478515625z"/><path fill="#4e9cd4" d=""/></svg>
